<svg width="28" height="20" viewBox="0 0 28 20" fill="none" xmlns="http://www.w3.org/2000/svg">
<path fill-rule="evenodd" clip-rule="evenodd" d="M13.8283 0.666748C11.4121 0.666748 9.45331 2.6255 9.45331 5.04175C9.45331 7.45799 11.4121 9.41675 13.8283 9.41675C16.2446 9.41675 18.2033 7.45799 18.2033 5.04175C18.2033 2.6255 16.2446 0.666748 13.8283 0.666748ZM11.2033 5.04175C11.2033 3.592 12.3786 2.41675 13.8283 2.41675C15.2781 2.41675 16.4533 3.592 16.4533 5.04175C16.4533 6.4915 15.2781 7.66675 13.8283 7.66675C12.3786 7.66675 11.2033 6.4915 11.2033 5.04175Z" fill="#2D264B"/>
<path fill-rule="evenodd" clip-rule="evenodd" d="M10.3283 11.1667C7.91207 11.1667 5.95331 13.1255 5.95331 15.5417C5.95331 17.958 7.91207 19.9167 10.3283 19.9167H17.3283C19.7446 19.9167 21.7033 17.958 21.7033 15.5417C21.7033 13.1255 19.7446 11.1667 17.3283 11.1667H10.3283ZM7.70331 15.5417C7.70331 14.092 8.87857 12.9167 10.3283 12.9167H17.3283C18.7781 12.9167 19.9533 14.092 19.9533 15.5417C19.9533 16.9915 18.7781 18.1667 17.3283 18.1667H10.3283C8.87857 18.1667 7.70331 16.9915 7.70331 15.5417Z" fill="#2D264B"/>
<path d="M8.87248 8.12018C8.68846 7.82457 8.34319 7.66675 7.99498 7.66675C6.54523 7.66675 5.36998 6.4915 5.36998 5.04175C5.36998 3.592 6.54523 2.41675 7.99498 2.41675C8.34319 2.41675 8.68846 2.25893 8.87248 1.96332C8.88062 1.95025 8.8888 1.93721 8.89704 1.9242C9.20341 1.44061 9.04818 0.755882 8.47915 0.693235C8.32017 0.675733 8.15862 0.666748 7.99498 0.666748C5.57873 0.666748 3.61998 2.6255 3.61998 5.04175C3.61998 7.45799 5.57873 9.41675 7.99498 9.41675C8.15862 9.41675 8.32017 9.40776 8.47915 9.39026C9.04818 9.32761 9.20341 8.64289 8.89704 8.1593C8.88881 8.14629 8.88062 8.13325 8.87248 8.12018Z" fill="#2D264B"/>
<path d="M5.32132 17.3698C5.18888 17.1488 4.95511 17.0001 4.6975 17.0001H4.49498C3.04523 17.0001 1.86998 15.8248 1.86998 14.3751C1.86998 12.9253 3.04523 11.7501 4.49498 11.7501H4.6975C4.95511 11.7501 5.18888 11.6014 5.32132 11.3804C5.6446 10.841 5.29378 10.0001 4.66495 10.0001H4.49498C2.07873 10.0001 0.11998 11.9588 0.11998 14.3751C0.11998 16.7913 2.07873 18.7501 4.49498 18.7501H4.66495C5.29378 18.7501 5.6446 17.9091 5.32132 17.3698Z" fill="#2D264B"/>
<path d="M18.7596 8.1593C18.4532 8.64289 18.6084 9.32761 19.1775 9.39026C19.3365 9.40776 19.498 9.41675 19.6616 9.41675C22.0779 9.41675 24.0366 7.45799 24.0366 5.04175C24.0366 2.6255 22.0779 0.666748 19.6616 0.666748C19.498 0.666748 19.3365 0.675733 19.1775 0.693235C18.6084 0.755882 18.4532 1.44061 18.7596 1.9242C18.7678 1.9372 18.776 1.95024 18.7841 1.96332C18.9682 2.25893 19.3134 2.41675 19.6616 2.41675C21.1114 2.41675 22.2866 3.592 22.2866 5.04175C22.2866 6.4915 21.1114 7.66675 19.6616 7.66675C19.3134 7.66675 18.9682 7.82457 18.7841 8.12018C18.776 8.13325 18.7678 8.14629 18.7596 8.1593Z" fill="#2D264B"/>
<path d="M22.3353 17.3698C22.012 17.9091 22.3628 18.7501 22.9917 18.7501H23.1616C25.5779 18.7501 27.5366 16.7913 27.5366 14.3751C27.5366 11.9588 25.5779 10.0001 23.1616 10.0001H22.9917C22.3628 10.0001 22.012 10.841 22.3353 11.3804C22.4677 11.6014 22.7015 11.7501 22.9591 11.7501H23.1616C24.6114 11.7501 25.7866 12.9253 25.7866 14.3751C25.7866 15.8248 24.6114 17.0001 23.1616 17.0001H22.9591C22.7015 17.0001 22.4677 17.1488 22.3353 17.3698Z" fill="#2D264B"/>
</svg>
