<svg width="26" height="26" viewBox="0 0 26 26" fill="none" xmlns="http://www.w3.org/2000/svg">
<path fill-rule="evenodd" clip-rule="evenodd" d="M11.9394 1.43934C12.5251 0.853553 13.4749 0.853553 14.0607 1.43934L24.5607 11.9393C24.9897 12.3683 25.118 13.0135 24.8858 13.574C24.6537 14.1345 24.1067 14.5 23.5 14.5H22V23.5C22 24.3284 21.3284 25 20.5 25H17.5C16.6716 25 16 24.3284 16 23.5V19C16 18.1716 15.3284 17.5 14.5 17.5H11.5C10.6716 17.5 10 18.1716 10 19V23.5C10 24.3284 9.32844 25 8.50001 25H5.50001C4.67159 25 4.00001 24.3284 4.00001 23.5V14.5H2.50001C1.89332 14.5 1.34637 14.1345 1.11419 13.574C0.882023 13.0135 1.01036 12.3683 1.43935 11.9393L11.9394 1.43934Z" fill="white" stroke="black" stroke-width="1.5" stroke-linecap="round" stroke-linejoin="round"/>
</svg>
