<svg width="24" height="23" viewBox="0 0 24 23" fill="none" xmlns="http://www.w3.org/2000/svg">
<path fill-rule="evenodd" clip-rule="evenodd" d="M12.0391 0.722615C11.8986 0.717462 11.758 0.717462 11.6175 0.722615C10.6901 0.756636 9.85507 1.07198 8.93946 1.59693C8.04719 2.10849 7.01995 2.85483 5.71657 3.8018L5.64572 3.85328C4.34233 4.80024 3.31507 5.54658 2.55281 6.2371C1.77063 6.94568 1.21266 7.64243 0.89373 8.5139C0.845417 8.64592 0.801961 8.77966 0.763451 8.91486C0.509231 9.80736 0.551094 10.699 0.767404 11.732C0.978201 12.7387 1.37058 13.9463 1.86843 15.4785L3.603 20.8169C3.97686 21.9676 5.04911 22.7466 6.25896 22.7466C7.80129 22.7466 9.0516 21.4963 9.0516 19.954V17.205C9.0516 16.5607 9.57392 16.0384 10.2182 16.0384H13.4384C14.0827 16.0384 14.605 16.5607 14.605 17.205V19.954C14.605 21.4963 15.8553 22.7466 17.3977 22.7466C18.6075 22.7466 19.6798 21.9676 20.0536 20.8169L21.7882 15.4785C22.2861 13.9463 22.6784 12.7387 22.8892 11.732C23.1055 10.699 23.1474 9.80736 22.8932 8.91486C22.8547 8.77966 22.8112 8.64592 22.7629 8.5139C22.444 7.64243 21.886 6.94568 21.1038 6.2371C20.3416 5.54657 19.3143 4.80024 18.0109 3.85327L17.94 3.80178C16.6367 2.85482 15.6094 2.10848 14.7172 1.59693C13.8016 1.07198 12.9665 0.756636 12.0391 0.722615ZM11.6725 2.22161C11.7763 2.2178 11.8803 2.2178 11.9841 2.22161C12.5796 2.24345 13.1726 2.44042 13.9711 2.89823C14.7849 3.36478 15.7472 4.06271 17.0938 5.04107C18.4404 6.01943 19.4016 6.71901 20.0968 7.34877C20.7789 7.96673 21.1495 8.46987 21.3543 9.02942C21.39 9.12699 21.4221 9.22584 21.4506 9.32578C21.6138 9.89882 21.6097 10.5237 21.4211 11.4246C21.2288 12.3427 20.8624 13.4736 20.3481 15.0566L18.627 20.3534C18.454 20.886 17.9577 21.2466 17.3977 21.2466C16.6838 21.2466 16.105 20.6679 16.105 19.954V17.205C16.105 15.7323 14.9111 14.5384 13.4384 14.5384H10.2182C8.74549 14.5384 7.5516 15.7323 7.5516 17.205V19.954C7.5516 20.6679 6.97287 21.2466 6.25896 21.2466C5.69895 21.2466 5.20263 20.886 5.02958 20.3534L3.30856 15.0566C2.7942 13.4736 2.42781 12.3427 2.23556 11.4246C2.04692 10.5237 2.04284 9.89882 2.20607 9.32578C2.23453 9.22585 2.26665 9.12699 2.30236 9.02942C2.50714 8.46987 2.87773 7.96673 3.55988 7.34877C4.25506 6.71901 5.21622 6.01943 6.56281 5.04107C7.90941 4.06271 8.87176 3.36478 9.68553 2.89823C10.484 2.44042 11.0771 2.24345 11.6725 2.22161Z" fill="#2D264B"/>
</svg>
